HIERARCHY
ROOT Hips
{
	OFFSET 0.000000 88.474243 0.000000
	CHANNELS 6 Xposition Yposition Zposition Zrotation Yrotation Xrotation 
	JOINT Hips_Spine
	{
		OFFSET 0.000000 0.000000 0.000000
		CHANNELS 3 Zrotation Yrotation Xrotation
		JOINT Spine
		{
			OFFSET 0.005100 8.711998 -0.691000
			CHANNELS 3 Zrotation Yrotation Xrotation
			JOINT Spine1
			{
				OFFSET -0.009200 8.660301 -1.275000
				CHANNELS 3 Zrotation Yrotation Xrotation
				JOINT Spine2
				{
					OFFSET 0.006300 9.852501 -1.857000
					CHANNELS 3 Zrotation Yrotation Xrotation
					JOINT Spine2_Neck
					{
						OFFSET 0.000000 0.000000 0.000000
						CHANNELS 3 Zrotation Yrotation Xrotation
						JOINT Neck
						{
							OFFSET 0.016300 11.420799 -0.263300
							CHANNELS 3 Zrotation Yrotation Xrotation
							End Site #name: Head
							{
								OFFSET -0.019200 9.262405 2.362500
							}
						}
					}
					JOINT Spine2_LeftShoulder
					{
						OFFSET 0.000000 0.000000 0.000000
						CHANNELS 3 Zrotation Yrotation Xrotation
						JOINT LeftShoulder
						{
							OFFSET 5.616900 6.732201 -0.345700
							CHANNELS 3 Zrotation Yrotation Xrotation
							JOINT LeftArm
							{
								OFFSET 10.664888 -0.183372 -2.440700
								CHANNELS 3 Zrotation Yrotation Xrotation
								JOINT LeftForeArm
								{
									OFFSET 27.459126 0.000000 0.000000
									CHANNELS 3 Zrotation Yrotation Xrotation
									End Site #name: LeftHand
									{
										OFFSET 21.306858 0.000000 0.000000
									}
								}
							}
						}
					}
					JOINT Spine2_RightShoulder
					{
						OFFSET 0.000000 0.000000 0.000000
						CHANNELS 3 Zrotation Yrotation Xrotation
						JOINT RightShoulder
						{
							OFFSET -5.580300 6.737503 -0.344400
							CHANNELS 3 Zrotation Yrotation Xrotation
							JOINT RightArm
							{
								OFFSET -10.679335 -0.188484 -2.383900
								CHANNELS 3 Zrotation Yrotation Xrotation
								JOINT RightForeArm
								{
									OFFSET -27.503529 0.000000 0.000000
									CHANNELS 3 Zrotation Yrotation Xrotation
									End Site #name: RightHand
									{
										OFFSET -21.306808 0.000000 0.000000
									}
								}
							}
						}
					}
				}
			}
		}
	}
	JOINT Hips_LeftUpLeg
	{
		OFFSET 0.000000 0.000000 0.000000
		CHANNELS 3 Zrotation Yrotation Xrotation
		JOINT LeftUpLeg
		{
			OFFSET 6.857700 -6.739601 0.312100
			CHANNELS 3 Zrotation Yrotation Xrotation
			JOINT LeftLeg
			{
				OFFSET -0.367590 -34.731552 -4.572400
				CHANNELS 3 Zrotation Yrotation Xrotation
				End Site #name: LeftFoot
				{
					OFFSET 0.367590 -34.656704 -6.067400
				}
			}
		}
	}
	JOINT Hips_RightUpLeg
	{
		OFFSET 0.000000 0.000000 0.000000
		CHANNELS 3 Zrotation Yrotation Xrotation
		JOINT RightUpLeg
		{
			OFFSET -6.876100 -6.733299 0.301000
			CHANNELS 3 Zrotation Yrotation Xrotation
			JOINT RightLeg
			{
				OFFSET 0.347353 -34.795158 -4.515900
				CHANNELS 3 Zrotation Yrotation Xrotation
				End Site #name: RightFoot
				{
					OFFSET -0.347353 -34.589367 -6.070300
				}
			}
		}
	}
}
MOTION
Frames: 11
Frame Time: 0.041667
0.020714 0.028397 0.001821 -4.355284 -0.671015 -4.680032 0.000000 0.000000 0.000000 2.286382 1.481768 18.149747 1.166996 1.049121 2.893587 0.000000 0.000000 0.000000 1.311747 0.778149 1.550257 1.821294 -0.719751 5.364149 1.092744 0.186154 3.407974 -11.696113 -9.653864 2.281064 -61.174713 5.054855 6.933384 0.573849 -13.595125 -0.396090 1.836254 0.622188 3.490449 8.490163 -3.968741 0.673338 71.239435 6.467877 36.806143 -0.254852 15.956797 0.842338 0.000000 0.000000 0.000000 7.452025 9.289685 -57.621813 6.533910 -4.778332 63.026010 0.000000 0.000000 0.000000 -5.543573 -6.690396 -48.017462 -1.388701 -1.317374 57.787360 
0.034046 0.056926 -0.083975 -4.335654 0.229419 -3.554752 0.000000 0.000000 -0.000000 2.187992 0.335982 16.281379 0.961290 0.350238 2.576808 0.000000 0.000000 0.000000 1.023946 0.497563 2.574875 1.792622 -0.844863 5.457949 1.173031 0.590184 2.877212 -10.884661 -6.817126 0.862382 -65.607342 0.913470 5.523467 0.086218 -18.754014 0.716463 0.716399 0.426695 2.789296 8.271187 -3.618803 0.346934 71.915745 9.539312 28.573910 0.007503 18.588943 0.416609 0.000000 0.000000 -0.000000 7.244133 10.602822 -57.809970 6.636876 -3.392756 61.493191 0.000000 0.000000 0.000000 -4.659443 -7.226882 -49.362846 -0.769048 -1.052012 58.411690 
0.029009 0.050221 -0.137548 -3.967369 0.909619 -2.926081 0.000000 0.000000 -0.000000 3.430670 0.305376 17.857499 0.711144 0.450001 2.413681 0.000000 0.000000 0.000000 0.842014 0.350856 2.300416 2.094807 -0.127666 5.239380 1.061731 0.609225 2.543112 -11.444423 -5.862536 0.547173 -64.195059 1.111637 6.117120 0.062538 -19.415845 0.682043 0.639139 0.519320 2.629876 7.478283 -3.172276 0.201557 71.669117 11.679983 27.073544 0.095878 22.569502 0.080005 -0.000000 0.000000 -0.000000 6.966431 10.137520 -58.338878 6.218280 -3.654477 60.844598 0.000000 0.000000 -0.000000 -4.994254 -6.908571 -49.860379 -0.296768 -0.889019 59.069066 
0.027538 0.039228 -0.191634 -4.028614 1.036514 -2.848583 0.000000 0.000000 -0.000000 3.463171 0.646985 18.595059 0.644337 0.398196 2.817281 0.000000 0.000000 0.000000 0.900230 0.393814 2.176255 1.850727 -0.133725 5.997666 0.938801 0.453580 2.511156 -10.191553 -4.663127 0.237939 -65.577854 -1.406079 3.922836 0.029541 -19.409497 0.717424 0.717175 0.511833 2.819442 7.353652 -3.210100 0.111821 73.069897 13.671444 26.356232 0.063960 27.593667 -0.073145 -0.000000 0.000000 -0.000000 7.098590 10.065740 -57.992190 6.220115 -3.502111 60.229895 0.000000 0.000000 -0.000000 -5.015006 -7.020084 -50.398517 0.193904 -0.768752 59.819954 
0.031854 0.034038 -0.242631 -4.054862 1.117119 -2.902589 0.000000 0.000000 -0.000000 3.378133 0.794349 19.312304 0.638854 0.320286 3.039549 0.000000 0.000000 0.000000 0.903094 0.375574 2.269231 1.872681 -0.064425 6.644043 0.923402 0.371036 2.551689 -9.597197 -3.700255 0.040502 -65.919771 -3.158007 1.921943 0.062917 -20.033691 0.650370 0.739261 0.484506 3.089209 7.839033 -3.314187 0.013708 73.966896 15.003819 25.945554 0.012366 31.587903 -0.167036 -0.000000 0.000000 -0.000000 7.235454 10.173980 -57.473303 6.290082 -3.204102 59.631659 0.000000 0.000000 -0.000000 -5.142633 -7.053790 -50.900323 0.322758 -0.828283 60.473933 
0.038464 0.032967 -0.289152 -4.086094 1.080062 -2.970568 0.000000 0.000000 -0.000000 3.244099 0.753789 19.764101 0.679656 0.253848 3.206099 0.000000 0.000000 0.000000 0.895528 0.329204 2.465629 1.891208 -0.063103 7.066132 0.937138 0.320054 2.720614 -9.558734 -3.297200 -0.031704 -65.625855 -3.926347 1.674621 0.078271 -20.349711 0.596672 0.729899 0.448389 3.274131 8.173250 -3.078026 0.045345 74.231350 15.970342 25.365542 -0.018957 33.818389 -0.211771 -0.000000 0.000000 -0.000000 7.329433 10.399612 -57.190342 6.298567 -3.121606 59.562552 0.000000 0.000000 -0.000000 -5.269662 -7.008642 -51.197808 0.376331 -0.877082 60.932725 
0.045587 0.035850 -0.333261 -4.100012 0.971207 -3.001634 0.000000 0.000000 -0.000000 3.112343 0.695037 20.038883 0.692037 0.221859 3.317068 0.000000 0.000000 0.000000 0.888500 0.304978 2.592055 1.912069 -0.087682 7.261756 0.954560 0.304088 2.839665 -9.479810 -2.862575 -0.121449 -65.163227 -4.319639 2.019168 0.097890 -20.665071 0.607904 0.730820 0.420718 3.345689 8.364492 -2.896520 0.091499 74.282946 16.434344 25.063955 -0.019900 34.314751 -0.207824 -0.000000 0.000000 -0.000000 7.400521 10.511784 -57.035159 6.293085 -3.112453 59.623534 0.000000 0.000000 -0.000000 -5.317100 -6.972581 -51.299750 0.392816 -0.880857 61.080622 
0.050651 0.040479 -0.375427 -4.104365 0.886099 -2.988156 0.000000 0.000000 -0.000000 3.003072 0.699792 20.018211 0.674853 0.208889 3.360863 0.000000 0.000000 0.000000 0.875900 0.290856 2.661656 1.917241 -0.107006 7.425869 0.961197 0.305082 2.918710 -9.355146 -2.534245 -0.175719 -64.800772 -4.387522 2.260225 0.109073 -21.236032 0.618447 0.716057 0.415598 3.356605 8.366727 -2.760586 0.150430 74.367908 16.515555 24.911471 -0.014250 34.127885 -0.187233 -0.000000 0.000000 -0.000000 7.436881 10.523614 -56.983409 6.270499 -3.133919 59.679995 0.000000 0.000000 -0.000000 -5.332343 -6.944761 -51.254953 0.371946 -0.890020 61.033108 
0.050242 0.045292 -0.416412 -4.108249 0.844074 -2.962362 0.000000 0.000000 -0.000000 2.920751 0.691296 19.936299 0.649572 0.212580 3.373111 0.000000 0.000000 0.000000 0.862274 0.285047 2.709642 1.902575 -0.148007 7.608926 0.950295 0.310663 2.956853 -9.142124 -2.182693 -0.251396 -64.626270 -4.112656 2.436117 0.107884 -22.054341 0.632253 0.693981 0.414882 3.344767 8.250910 -2.703980 0.191164 74.535747 16.359079 24.586891 -0.015396 34.186669 -0.156649 -0.000000 0.000000 -0.000000 7.450984 10.507584 -56.978395 6.228411 -3.178312 59.704034 0.000000 0.000000 -0.000000 -5.339357 -6.932428 -51.216810 0.370801 -0.891970 60.964011 
0.045523 0.049999 -0.456332 -4.107918 0.825196 -2.934876 0.000000 0.000000 -0.000000 2.899892 0.666445 19.981491 0.621012 0.217530 3.380941 0.000000 0.000000 0.000000 0.845095 0.281316 2.724356 1.870583 -0.177450 7.759038 0.927364 0.311580 2.956864 -8.887305 -1.787241 -0.363365 -64.562355 -3.728766 2.576373 0.104921 -22.988201 0.647619 0.669715 0.413733 3.328498 8.078418 -2.794677 0.216304 74.779630 16.041836 24.047739 -0.016144 34.952034 -0.126809 -0.000000 0.000000 -0.000000 7.451782 10.465477 -56.993568 6.181294 -3.229268 59.697394 0.000000 0.000000 -0.000000 -5.342354 -6.934432 -51.233461 0.373279 -0.885515 60.959777 
0.037271 0.054912 -0.495271 -4.106625 0.828705 -2.916932 0.000000 0.000000 -0.000000 2.925415 0.611142 20.097636 0.589296 0.219185 3.390492 0.000000 0.000000 0.000000 0.825536 0.275256 2.726985 1.846012 -0.196175 7.898304 0.899046 0.307433 2.943893 -8.620653 -1.395901 -0.482879 -64.639847 -3.429425 2.766031 0.101570 -23.697046 0.655391 0.642174 0.410297 3.323300 7.888029 -2.974711 0.233849 75.119462 15.747735 23.332704 -0.007419 37.290297 -0.078021 -0.000000 0.000000 -0.000000 7.450803 10.416985 -57.020317 6.139223 -3.274880 59.689838 0.000000 0.000000 -0.000000 -5.351081 -6.941749 -51.286225 0.369127 -0.881228 61.006367 
